<svg width="300" height="300" viewBox="0 0 100 100" version="1.1" id="svg1"
	xmlns:inkscape="http://www.inkscape.org/namespaces/inkscape"
	xmlns:sodipodi="http://sodipodi.sourceforge.net/DTD/sodipodi-0.dtd"
	xmlns:xlink="http://www.w3.org/1999/xlink" xmlns="http://www.w3.org/2000/svg"
	xmlns:svg="http://www.w3.org/2000/svg">
	<defs>
		<radialGradient id="flame-color" cx="50%" cy="50%" r="50%" fx="52%" fy="80%">
			<stop offset="0%" style="stop-color:hsl(43 100% 60%);" />
			<stop offset="100%" style="stop-color:hsl(17 100% 40%);" />
		</radialGradient>
		<radialGradient id="candle-color" cx="50%" cy="0%" r="100%" fx="50%" fy="50%">
			<stop offset="0%" style="stop-color:hsl(17 100% 60%);" />
			<stop offset="70%" style="stop-color:hsl(31 100% 30%);" />
		</radialGradient>
		<symbol id="flame" viewBox="-3 0 43 66">
			<path
				d="M 15 55 Q 1 50 0 40 Q 0 20 15 0 Q 15 5 30 20 Q 35 25 35 30 Q 35 40 25 52 Q 19 48 15 55 Z"
				fill="url(#flame-color)"
				stroke="hsl(31 100% 10%)"
				stroke-width="3" />
		</symbol>
		<symbol id="candle" viewBox="-2 -2 44 37">
			<path
				d="M 0 0 Q 12 0 12 0 Q 20 14 20 14 Q 28 0 28 0 Q 40 0 40 0 Q 20 35 20 35 Q 0 0 0 0 Z"
				stroke="hsl(31 100% 10%)"
				fill="url(#candle-color)"
				stroke-width="3" />
		</symbol>
	</defs>

	<use href="#flame" x="28" y="-8" width="46" />
	<use href="#candle" x="35" y="32" width="30" />
</svg>